<svg xmlns="http://www.w3.org/2000/svg"  viewBox="0 0 100 100" width="50px" height="50px"><path fill="#ee3e54" d="M13 27A2 2 0 1 0 13 31A2 2 0 1 0 13 27Z"/><path fill="#f1bc19" d="M77 12A1 1 0 1 0 77 14A1 1 0 1 0 77 12Z"/><path fill="#fce0a2" d="M50 13A37 37 0 1 0 50 87A37 37 0 1 0 50 13Z"/><path fill="#f1bc19" d="M83 11A4 4 0 1 0 83 19A4 4 0 1 0 83 11Z"/><path fill="#ee3e54" d="M87 22A2 2 0 1 0 87 26A2 2 0 1 0 87 22Z"/><path fill="#fbcd59" d="M81 74A2 2 0 1 0 81 78 2 2 0 1 0 81 74zM15 59A4 4 0 1 0 15 67 4 4 0 1 0 15 59z"/><path fill="#ee3e54" d="M25 85A2 2 0 1 0 25 89A2 2 0 1 0 25 85Z"/><path fill="#fff" d="M18.5 51A2.5 2.5 0 1 0 18.5 56A2.5 2.5 0 1 0 18.5 51Z"/><path fill="#f1bc19" d="M21 66A1 1 0 1 0 21 68A1 1 0 1 0 21 66Z"/><path fill="#fff" d="M80 33A1 1 0 1 0 80 35A1 1 0 1 0 80 33Z"/><path fill="#4985c1" d="M35,72.3c-4,0-7.3-3.3-7.3-7.3V35c0-4,3.3-7.3,7.3-7.3h30c4,0,7.3,3.3,7.3,7.3v30c0,4-3.3,7.3-7.3,7.3H35z"/><path fill="#472b29" d="M65,28.4c3.6,0,6.6,3,6.6,6.6v30c0,3.6-3,6.6-6.6,6.6H35c-3.6,0-6.6-3-6.6-6.6V35c0-3.6,3-6.6,6.6-6.6H65 M65,27H35c-4.4,0-8,3.6-8,8v30c0,4.4,3.6,8,8,8h30c4.4,0,8-3.6,8-8V35C73,30.6,69.4,27,65,27L65,27z"/><path fill="#fdfcee" d="M68.5,47.9v1.8V64c0,2.5-2,4.5-4.5,4.5H36c-2.5,0-4.5-2-4.5-4.5V36c0-2.5,2-4.5,4.5-4.5h25.4H64 c2.5,0,4.5,2,4.5,4.5v3.4v2v1v1.1v2.9V47.9"/><path fill="#472b29" d="M68.5 47.4c-.3 0-.5-.2-.5-.5V43c0-.3.2-.5.5-.5S69 42.7 69 43v3.9C69 47.2 68.8 47.4 68.5 47.4zM68.5 40.5c-.3 0-.5-.2-.5-.5v-2c0-.3.2-.5.5-.5S69 37.7 69 38v2C69 40.3 68.8 40.5 68.5 40.5z"/><path fill="#472b29" d="M64,69H36c-2.8,0-5-2.2-5-5V36c0-2.8,2.2-5,5-5h25.4c0.3,0,0.5,0.2,0.5,0.5S61.7,32,61.4,32H36 c-2.2,0-4,1.8-4,4v28c0,2.2,1.8,4,4,4h28c2.2,0,4-1.8,4-4V49.6c0-0.3,0.2-0.5,0.5-0.5s0.5,0.2,0.5,0.5V64C69,66.8,66.8,69,64,69z"/><path fill="#4985c1" d="M46.5,43.4c0,0.6,0,3.1,0,3.1h-2.1v3.6h2.1v11.4h5V50.1h2.9c0,0,0.3-1.7,0.4-3.6c-0.4,0-4.1,0-4.1,0 s0-2.2,0-2.6c0-0.4,0.5-0.9,1-0.9s2.2,0,3.3,0c0-0.6,0-2.5,0-4.3c-1.4,0-2.9,0-3.6,0C46.4,38.6,46.5,42.8,46.5,43.4z"/><path fill="#472b29" d="M51.5,62h-5c-0.3,0-0.5-0.2-0.5-0.5V50.6h-1.6c-0.3,0-0.5-0.2-0.5-0.5v-3.6c0-0.3,0.2-0.5,0.5-0.5H46v-2.6h0.5 l-0.5,0c0-1.6,0.5-2.9,1.4-3.8c0.9-1,2.3-1.4,4.1-1.4h3.6c0.3,0,0.5,0.2,0.5,0.5v4.3c0,0.3-0.2,0.5-0.5,0.5h-3.3 c-0.2,0-0.5,0.3-0.5,0.4V46h3.6c0.1,0,0.3,0.1,0.4,0.2c0.1,0.1,0.1,0.2,0.1,0.4c-0.1,1.9-0.4,3.5-0.4,3.6c0,0.2-0.2,0.4-0.5,0.4H52 v10.9C52,61.8,51.8,62,51.5,62z M47,61h4V50.1c0-0.3,0.2-0.5,0.5-0.5H54c0.1-0.5,0.2-1.5,0.3-2.6h-3.5c-0.3,0-0.5-0.2-0.5-0.5v-2.6 c0-0.7,0.8-1.4,1.5-1.4h2.8v-3.3h-3.1c-1.5,0-2.7,0.4-3.4,1.1C47.4,41,47,42,47,43.3c0,0,0,0,0,0v3.1c0,0.3-0.2,0.5-0.5,0.5h-1.6 v2.6h1.6c0.3,0,0.5,0.2,0.5,0.5V61z"/></svg>